<svg id="svg2424" xmlns="http://www.w3.org/2000/svg" viewBox="0 0 128 127.95">
    <g id="layer1">
        <g id="g2424">
            <g id="g328">
                <g id="g288">
                    <path id="path286" 
                          d="M114.87,101.69c-.84-.45-1.68-.88-2.53-1.29q1.77,1.41,3.49,2.89c.15.22.29.44.44.65q5,9.27,10,18.52c.62,1.83,1.2,3.67,1.73,5.49q-8.72-4.94-17.52-9.69-6.6-3.45-13.41-6.43a108.48,108.48,0,0,0-17.47-6l-5-1.07a45.45,45.45,0,0,0,1.07-6.87,32.18,32.18,0,0,0-2.2-14.23,19.67,19.67,0,0,0-3.35-5.44A9.88,9.88,0,0,0,65.7,75.3a6.87,6.87,0,0,0-5.82.93,15.05,15.05,0,0,0-4.42,5,28.74,28.74,0,0,0-3.22,13.95,30.87,30.87,0,0,0,.31,4.61c.18,1,.35,2.06.52,3.08a2.22,2.22,0,0,1-1.76,2.23,88,88,0,0,0-14.17,4,165.8,165.8,0,0,0-18.52,8.29q-6.9,3.63-13.68,7.47c-1.62.64-3.26,1.21-4.91,1.73a.22.22,0,0,1,0-.22l.66-2.3.93-2.48q14-25.08,27.63-50.43,6.63-12.47,13-25.1,2-4.08,4-8.19a.26.26,0,0,1,.09,0,13.69,13.69,0,0,0,1.48.63,2.49,2.49,0,0,1-.52-2.78Q50,29.88,52.49,24,57.46,12,62.24,0c1,0,2,0,2.94,0Q70.47,12.68,76,25.22q3.84,8.52,8,16.92T92.37,59q9.16,17.56,18.52,35Z"/>
                </g>
                <g id="g292">
                    <path id="path290" fill="#fefffe"
                          d="M63.67,2q3.47,8,6.84,16,7.42,17.25,16,34Q98,74.47,110,96.64a66.12,66.12,0,0,0-16.53-6.4,89.56,89.56,0,0,1,14.77,9.5q3,2.49,6.07,4.92,5.16,9.5,10.22,19-9.63-5.62-19.69-10.58a144.56,144.56,0,0,0-18-7.36A83.62,83.62,0,0,0,77,103.18a36.47,36.47,0,0,0-.57-17.31,24.13,24.13,0,0,0-4.56-8.79,13.13,13.13,0,0,0-4.59-3.43,9,9,0,0,0-8.62.93,16.29,16.29,0,0,0-4.92,5.58,30.18,30.18,0,0,0-3.46,12.58A34.79,34.79,0,0,0,51,103a.31.31,0,0,1-.06.13,95.5,95.5,0,0,0-16.21,4.73,188.31,188.31,0,0,0-18.34,8.4q-6.82,3.61-13.49,7.45,7.83-14.26,15.71-28.51Q29.41,75.51,39.75,55.6q3.81-7.45,7.44-15c0-.05.06-.06.11,0a59.05,59.05,0,0,0,11.87,7.47q2.59,1.25,5.27,2.31A92.42,92.42,0,0,1,49,36.81q3-6.57,5.91-13.24Q59.37,12.81,63.67,2Z"/>
                </g>
                <g id="g296">
                    <path id="path294" 
                          d="M67,93.34a3,3,0,0,1,3.27,1.92,4.88,4.88,0,0,1-.33,3.52,9.18,9.18,0,0,1-1.84,2.53,17.8,17.8,0,0,1,2.33,3.18,7.75,7.75,0,0,1-.05,7.75,13.91,13.91,0,0,1-2.17,2.83A11.79,11.79,0,0,1,70.13,118a5.3,5.3,0,0,1,.38,2.75,2.86,2.86,0,0,1-2.5,2.39,2.92,2.92,0,0,1-3.08-1.7c-.66,0-1.31,0-2,0a2.58,2.58,0,0,1-1.16,1.4,2.94,2.94,0,0,1-4-1,3.93,3.93,0,0,1-.38-2.41,5.79,5.79,0,0,1,1-2.59q.65-.83,1.35-1.62-6.64-6.8-.11-13.7-.53-.67-1.08-1.32a6.78,6.78,0,0,1-1.34-3.65,3,3,0,0,1,3.51-3,3,3,0,0,1,2.2,1.76,10.62,10.62,0,0,0,1.87,0A3.07,3.07,0,0,1,67,93.34Z"/>
                </g>
                <g id="g300">
                    <path id="path298" fill="#fefffe"
                          d="M67.24,95.37a1,1,0,0,1,1.13.66,3.89,3.89,0,0,1-.55,2.31,7.65,7.65,0,0,1-.94,1.26q-2.22,2.31-4.5,4.56c-.24.27-.47.54-.69.83l.61.05c1.26,0,2.52-.06,3.79-.11l-1.24-1.37c-.23-.92.13-1.35,1.07-1.29a1.29,1.29,0,0,1,.63.47,16.31,16.31,0,0,1,2,2.63,5.52,5.52,0,0,1,.11,5.72,16.24,16.24,0,0,1-1.26,1.81c-1.43,1.49-2.89,3-4.37,4.39a14.61,14.61,0,0,0,1.87.06,1.07,1.07,0,0,1,.44-1.35,1.1,1.1,0,0,1,1.29.42,9.27,9.27,0,0,1,1.76,2.69,3.51,3.51,0,0,1,.11,1.37.91.91,0,0,1-1.6.22c-.13-.47-.27-.94-.41-1.4-1.68,0-3.37,0-5,0a9.3,9.3,0,0,0-.3,1.29.93.93,0,0,1-1.3.41,1,1,0,0,1-.43-1,4,4,0,0,1,.85-2.33l1-1.21q2.49-2.41,4.81-4.94a1.38,1.38,0,0,0-.39-.09c-1.32,0-2.63,0-4,0a.26.26,0,0,0,0,.17,2.75,2.75,0,0,1,.9,1.37.93.93,0,0,1-1.26.85,8.75,8.75,0,0,1-2.94-4.81,5.31,5.31,0,0,1,.38-3c.17-.38.35-.74.55-1.1a19.05,19.05,0,0,1,2.2-2.63c1.11-1,2.2-2.13,3.27-3.22-.66,0-1.32,0-2,0a1,1,0,0,1-.55,1.45,1.22,1.22,0,0,1-.82-.11,8.6,8.6,0,0,1-2.12-3A3.77,3.77,0,0,1,59.3,96a.93.93,0,0,1,1.4-.46.81.81,0,0,1,.25.3,4.73,4.73,0,0,1,.22,1,1.24,1.24,0,0,0,.19.36l3,0c.67,0,1.33-.07,2-.13.13-.47.26-.94.41-1.41A2.49,2.49,0,0,1,67.24,95.37Z"/>
                </g>
                <g id="g308">
                    <path id="path306" 
                          d="M66.75,106.8a1.66,1.66,0,0,0,.55.06,4.63,4.63,0,0,1,.13,2.25,1.29,1.29,0,0,1-.19.47q-3.27,0-6.54,0a1,1,0,0,1-.24-.09,3.78,3.78,0,0,1,.08-2.61C62.62,106.87,64.69,106.85,66.75,106.8Z"/>
                </g>
            </g>
        </g>
    </g>
</svg>