<?xml version="1.0" encoding="utf-8"?>
<!-- Generator: Adobe Illustrator 26.3.1, SVG Export Plug-In . SVG Version: 6.00 Build 0)  -->
<svg version="1.1" id="图层_1" xmlns="http://www.w3.org/2000/svg" xmlns:xlink="http://www.w3.org/1999/xlink" x="0px" y="0px"
	 viewBox="0 0 24 24" style="enable-background:new 0 0 24 24;" xml:space="preserve">
<style type="text/css">
	.st0{fill:#00B5E2;}
	.st1{fill:#001728;}
</style>
<path class="st0" d="M12,0C8.1,0,4.6,1.6,2,4.2l1.7,1.7C5.8,3.7,8.8,2.4,12,2.4c3.2,0,6.2,1.3,8.3,3.4L22,4.2C19.4,1.6,15.9,0,12,0
	L12,0z"/>
<path class="st0" d="M12,4.3c-2.7,0-5.2,1.1-6.9,2.9l1.7,1.7C8.1,7.6,10,6.7,12,6.7c2,0,3.9,0.8,5.3,2.2l1.7-1.7
	C17.2,5.4,14.7,4.3,12,4.3z"/>
<path class="st1" d="M4.3,8.1c-1.3,1.7-2.1,3.8-2.1,6.1c0,5.4,4.4,9.8,9.8,9.8c5.4,0,9.8-4.4,9.8-9.8c0-2.3-0.8-4.4-2.1-6.1L18,9.8
	c0.9,1.2,1.4,2.7,1.4,4.4c0,4.1-3.3,7.4-7.4,7.4c-4.1,0-7.4-3.3-7.4-7.4c0-1.6,0.5-3.1,1.4-4.4C6,9.8,4.3,8.1,4.3,8.1z"/>
<path class="st0" d="M12,8.6c-1.5,0-2.9,0.6-3.9,1.6L9.8,12c1.2-1.2,3.2-1.2,4.4,0l1.7-1.7C14.9,9.2,13.5,8.6,12,8.6L12,8.6z"/>
<path class="st0" d="M12,12.5c-0.9,0-1.6,0.7-1.6,1.6c0,0.9,0.7,1.6,1.6,1.6c0.9,0,1.6-0.7,1.6-1.6C13.6,13.3,12.9,12.5,12,12.5z"/>
</svg>
