<?xml version="1.0" encoding="utf-8"?>
<!-- Generator: Adobe Illustrator 26.3.1, SVG Export Plug-In . SVG Version: 6.00 Build 0)  -->
<svg version="1.1"
	 id="svg2" xmlns:inkscape="http://www.inkscape.org/namespaces/inkscape" xmlns:svg="http://www.w3.org/2000/svg" xmlns:dc="http://purl.org/dc/elements/1.1/" xmlns:rdf="http://www.w3.org/1999/02/22-rdf-syntax-ns#" xmlns:cc="http://creativecommons.org/ns#" xmlns:sodipodi="http://sodipodi.sourceforge.net/DTD/sodipodi-0.dtd"
	 xmlns="http://www.w3.org/2000/svg" xmlns:xlink="http://www.w3.org/1999/xlink" x="0px" y="0px" viewBox="0 0 64 64"
	 style="enable-background:new 0 0 64 64;" xml:space="preserve">
<style type="text/css">
	.st0{fill:url(#path1948_00000050627049957349400430000012352655008811753125_);}
	.st1{fill:url(#path1950_00000168814638516442484970000008101525862803296692_);}
	.st2{opacity:0.4438;fill:url(#path1894_00000176733169404443460780000013251176258976313257_);enable-background:new    ;}
</style>
<linearGradient id="path1948_00000090292474329610863700000002588374072915215507_" gradientUnits="userSpaceOnUse" x1="18.5212" y1="47.7071" x2="73.5555" y2="0.3575" gradientTransform="matrix(0.5625 0 0 -0.568 -7.8542 32.3434)">
	<stop  offset="0" style="stop-color:#5A9FD4"/>
	<stop  offset="1" style="stop-color:#306998"/>
</linearGradient>
<path id="path1948" style="fill:url(#path1948_00000090292474329610863700000002588374072915215507_);" d="M31.7,3.6
	c-2.3,0-4.5,0.2-6.5,0.6c-5.7,1-6.8,3.1-6.8,7v5.2H32v1.7H18.4h-5.1c-3.9,0-7.4,2.4-8.5,6.9c-1.2,5.2-1.3,8.4,0,13.8
	c1,4,3.3,6.9,7.2,6.9h4.7v-6.2c0-4.5,3.9-8.4,8.5-8.4h13.5c3.8,0,6.8-3.1,6.8-6.9V11.2c0-3.7-3.1-6.4-6.8-7
	C36.4,3.8,34,3.6,31.7,3.6z M24.3,7.8c1.4,0,2.5,1.2,2.5,2.6c0,1.4-1.1,2.6-2.5,2.6c-1.4,0-2.5-1.1-2.5-2.6
	C21.8,8.9,22.9,7.8,24.3,7.8z"/>
<linearGradient id="path1950_00000054244548728171142510000008037419833278645141_" gradientUnits="userSpaceOnUse" x1="94.8321" y1="-28.3004" x2="75.1794" y2="-0.4953" gradientTransform="matrix(0.5625 0 0 -0.568 -7.8542 32.3434)">
	<stop  offset="0" style="stop-color:#FFD43B"/>
	<stop  offset="1" style="stop-color:#FFE873"/>
</linearGradient>
<path id="path1950" style="fill:url(#path1950_00000054244548728171142510000008037419833278645141_);" d="M47.2,18.1v6
	c0,4.7-4,8.6-8.5,8.6H25.2c-3.7,0-6.8,3.2-6.8,6.9v12.9c0,3.7,3.2,5.8,6.8,6.9c4.3,1.3,8.4,1.5,13.5,0c3.4-1,6.8-3,6.8-6.9v-5.2H32
	v-1.7h13.5h6.8c3.9,0,5.4-2.7,6.8-6.9c1.4-4.2,1.4-8.3,0-13.8c-1-3.9-2.8-6.9-6.8-6.9L47.2,18.1z M39.6,50.7c1.4,0,2.5,1.1,2.5,2.6
	c0,1.4-1.1,2.6-2.5,2.6c-1.4,0-2.5-1.2-2.5-2.6C37,51.9,38.2,50.7,39.6,50.7z"/>
<radialGradient id="path1894_00000155836424311716878530000000626759266146461092_" cx="223.6989" cy="-59.134" r="29.0369" gradientTransform="matrix(1.749057e-08 -0.2399 -1.0547 -3.791546e-07 -16.2355 162.8761)" gradientUnits="userSpaceOnUse">
	<stop  offset="0" style="stop-color:#B8B8B8;stop-opacity:0.498"/>
	<stop  offset="1" style="stop-color:#7F7F7F;stop-opacity:0"/>
</radialGradient>
<ellipse id="path1894" style="opacity:0.4438;fill:url(#path1894_00000155836424311716878530000000626759266146461092_);enable-background:new    ;" cx="46.1" cy="109.2" rx="35.9" ry="7"/>
</svg>
