<?xml version="1.0" standalone="no"?><!DOCTYPE svg PUBLIC "-//W3C//DTD SVG 1.1//EN"
        "http://www.w3.org/Graphics/SVG/1.1/DTD/svg11.dtd">
<svg t="1708160397137" class="icon" viewBox="0 0 1024 1024" version="1.1" xmlns="http://www.w3.org/2000/svg"
     p-id="11144" xmlns:xlink="http://www.w3.org/1999/xlink" width="200" height="200">
    <path d="M512 85.333333C276.266667 85.333333 85.333333 276.266667 85.333333 512s190.933333 426.666667 426.666667 426.666667 426.666667-190.933333 426.666667-426.666667S747.733333 85.333333 512 85.333333z m42.666667 725.333334h-85.333334v-85.333334h85.333334v85.333334z m88.106666-330.453334l-38.186666 39.253334C573.866667 550.186667 554.666667 576 554.666667 640h-85.333334v-21.333333c0-47.146667 19.2-89.813333 49.92-120.746667l53.12-53.76C587.733333 428.8 597.333333 407.466667 597.333333 384c0-47.146667-38.186667-85.333333-85.333333-85.333333s-85.333333 38.186667-85.333333 85.333333h-85.333334c0-94.293333 76.373333-170.666667 170.666667-170.666667s170.666667 76.373333 170.666667 170.666667c0 37.546667-15.146667 71.466667-39.893334 96.213333z"
          p-id="11145"></path>
</svg>