<?xml version="1.0" standalone="no"?><!DOCTYPE svg PUBLIC "-//W3C//DTD SVG 1.1//EN" "http://www.w3.org/Graphics/SVG/1.1/DTD/svg11.dtd"><svg t="1728910891840" class="icon" viewBox="0 0 1024 1024" version="1.1" xmlns="http://www.w3.org/2000/svg" p-id="62504" xmlns:xlink="http://www.w3.org/1999/xlink" width="32" height="32"><path d="M833.422222 190.577778C657.066667 14.222222 366.933333 14.222222 190.577778 190.577778 14.222222 366.933333 14.222222 657.066667 190.577778 833.422222c176.355556 176.355556 466.488889 176.355556 642.844444 0 179.2-176.355556 179.2-466.488889 0-642.844444zM429.511111 725.333333l-65.422222 125.155556c-8.533333 14.222222-25.6 19.911111-39.822222 11.377778-36.977778-19.911111-65.422222-42.666667-93.866667-68.266667-25.6-25.6-51.2-59.733333-68.266667-93.866667-8.533333-14.222222-2.844444-31.288889 11.377778-39.822222l125.155556-65.422222c14.222222-8.533333 31.288889-2.844444 39.822222 11.377778 8.533333 17.066667 19.911111 34.133333 34.133333 45.511111 14.222222 14.222222 28.444444 25.6 45.511111 34.133333 11.377778 8.533333 17.066667 25.6 11.377778 39.822222z m182.044445-113.777777c-56.888889 56.888889-145.066667 56.888889-201.955556 0s-56.888889-145.066667 0-201.955556 145.066667-56.888889 201.955556 0 56.888889 147.911111 0 201.955556z m238.933333-247.466667l-125.155556 65.422222c-14.222222 8.533333-31.288889 2.844444-39.822222-11.377778-8.533333-17.066667-19.911111-34.133333-34.133333-45.511111-14.222222-14.222222-28.444444-25.6-45.511111-34.133333-14.222222-8.533333-19.911111-25.6-11.377778-39.822222l65.422222-125.155556c8.533333-14.222222 25.6-19.911111 39.822222-11.377778 34.133333 19.911111 68.266667 42.666667 93.866667 68.266667 28.444444 28.444444 51.2 59.733333 68.266667 93.866667 8.533333 14.222222 2.844444 31.288889-11.377778 39.822222z" p-id="62505"></path><path d="M451.296958 569.128872a85.333333 85.333333 0 1 0 120.677451-120.681664 85.333333 85.333333 0 1 0-120.677451 120.681664Z" p-id="62506"></path></svg>